<?xml version="1.0" encoding="utf-8"?>
<!-- Generator: Adobe Illustrator 19.1.0, SVG Export Plug-In . SVG Version: 6.00 Build 0)  -->
<svg version="1.1" id="Layer_1" xmlns="http://www.w3.org/2000/svg" xmlns:xlink="http://www.w3.org/1999/xlink" x="0px" y="0px"
	 viewBox="-447 249 64 64" style="enable-background:new -447 249 64 64;" xml:space="preserve">
<style type="text/css">
	.st0{fill:#F26522;}
</style>
<path class="st0" d="M-437.1,291.4c-3.4,0.2-6.8,3.8-6.4,7.5c0.4,3.7,0.9,5.7,2.2,7.5s5.5,3.4,8.8,3.4c3.4,0,6.6-1.5,7.1-5.3
	c0.4-3.8,0.2-6.4-1.8-9C-429.2,292.8-431.9,291.1-437.1,291.4L-437.1,291.4z M-430.8,304.8c-2.3,1.6-5.8,1.3-8.4-0.1
	c-2.6-1.5-3.4-5.2-2.4-7.7c1-2.5,3.3-4.5,6.1-4.4c3.1,0.1,5.8,1.6,7,4.2S-428.6,303.2-430.8,304.8L-430.8,304.8z M-383,294.9
	c-0.2-8.9-2.4-15.5-6-21.4c-3.6-6-8.2-12.2-18.2-17.3c-10.1-5.2-19.7-6.9-25.9-7.1c-6.2-0.2-10.1,0.3-11.5,1.4
	c-1.4,1.1-1.2,5.1-1.2,7.5c0,2.4,0.4,3,1.2,4.4c0.8,1.4,2.6,2.2,5.5,2.9c1.9,0.5,13.9,1.9,20.2,4c6.3,2.1,10.2,6.1,13.2,10.7
	c3,4.6,5.3,12.8,6.1,17.5s0.4,12.1,1.1,13.5c0.7,1.3,5.4,1.8,7.8,2c2.4,0.2,3.9-0.2,5.2-1C-384.5,311-382.8,303.8-383,294.9
	L-383,294.9z M-384.7,299c-0.1-0.1-6-6.1-6.1-5.8c-0.1,0.3-0.3,1.4,0.1,1.8c0.4,0.4,5.8,5,5.9,5.3c0.1,0.3,0.1,2.1-0.1,2
	c-0.2-0.1-6.1-6.1-6.3-6c-0.1,0.1-0.3,1.1,0,1.5c0.4,0.3,6.1,5.7,6.1,6.1c0,0.4,0,2-0.2,2c-0.2,0-6-6.3-6.2-6.2
	c-0.1,0.1-0.4,1-0.1,1.5c0.2,0.4,5.6,5.4,5.6,5.4s-1.1,0.5-1.1,0.4c-0.1-0.1-4.8-4.6-5-4.5c-0.2,0.1-0.8,0.6-0.6,0.9
	c0.2,0.2,4.3,3.8,4.1,3.8s-1.9,0.1-2.1,0c-0.2-0.2-3-3-3.2-3s-0.7,0.8-0.5,0.9c0.2,0.1,1.7,1.7,1.6,1.7s-1.8-0.1-1.9-0.3
	c-0.1-0.2-0.1-4.2-1.9-12.3c-1.8-8.1-4.4-15.9-7.7-19.7c-3.3-3.9-11.2-9.1-19.4-10.6c-8.3-1.6-17.8-2.5-19.3-2.9
	c-1.2-0.3-1.2-1-1.4-2.8c-0.1-1.8,0.2-5.7,0.8-6.4c0.6-0.7,3.9-1,7.1-1c3.2,0,9.4,0.3,15.1,1.9c5.8,1.6,16.3,4.8,22.3,10.8
	c6,6,9.3,11.5,9.3,11.5s-1.7-1.5-1.7-1.1c0,0.5-0.2,1.3,1,2.2c1.2,0.9,2.6,2.8,3.3,3.9c0.6,1.1,0.7,1.7,0.7,1.7s-3.6-3.6-3.8-3.3
	c-0.2,0.3-0.4,1.1,0.1,1.5c0.5,0.4,4.3,4.2,4.5,4.5c0.2,0.3,0.9,2.2,0.6,2.1c-0.3-0.1-4.8-4.2-5-4.1c-0.2,0.1-0.3,1.2,0,1.4
	c0.2,0.2,5.1,4.2,5.3,4.7c0.2,0.4,0.6,3.1,0.4,3c-0.2-0.1-5.2-5.6-5.6-5.5c-0.4,0.1-0.3,1.1-0.2,1.3c0.1,0.1,5.9,5.6,6,6.1
	c0.1,0.5,0.2,2,0,1.9c-0.2-0.1-6-6.1-6.1-5.9c-0.2,0.2-0.2,1.5,0,1.6c0.2,0.1,6.2,5.7,6.3,6.1C-384.4,297.1-384.5,299.1-384.7,299
	L-384.7,299z M-414,276.8c-2.8-2.1-10.2-5.6-15.1-7c-4.9-1.4-6.6-1.5-11.3-1.4c-1.5,0-4,0.7-4.1,2.3s-0.8,7.4,0,8.6
	c0.8,1.2,2.5,4.4,3.8,4.8c1.3,0.4,11.4,2.6,16.3,7.9c4.8,5.3,5.7,8.1,6,11.2c0.4,3.1-0.5,7.8,0.4,8.5c1,0.7,4.4,1,7.2,1.3
	c2.9,0.2,4.6-0.2,6.1-1.8c1.5-1.5,2.2-3.4,2.3-6c0.1-2.5-0.5-10.8-2.7-15.9C-407.1,284.3-411.2,278.8-414,276.8L-414,276.8z
	 M-404.6,295.8c0,0.2-3.7-3.3-3.9-3.3s-0.6,0.7-0.5,1c0,0.3,4.6,4,4.8,4.2c0.2,0.2,0.2,0.9,0.2,1.1c0,0.3-4.5-3.9-4.7-3.9
	c-0.2,0-0.4,0.9-0.1,1.2c0.3,0.3,4.8,4.1,4.9,4.3c0.1,0.2,0.1,1.3,0.1,1.7c-0.1,0.4-4.2-3.9-4.4-3.8c-0.2,0-0.4,0.6-0.1,1
	c0.2,0.4,4.3,4,4.6,4.1c0.2,0.1,0.2,1.5,0.1,1.8c-0.1,0.3-3.9-3.9-4.3-4.3c-0.4-0.4-0.6-0.3-0.9,0.1c-0.3,0.4,0.1,0.7,0.5,1.1
	c0.3,0.4,4.5,4.3,4.5,4.3s-0.3,1-0.6,1c-0.3,0-3.9-4.1-4.2-4.4c-0.3-0.3-0.8,0.5-0.9,0.9c0,0.3,3.8,3.8,4,4.1
	c0.2,0.3-1.5,0.3-1.9,0.2c-0.4-0.1-3.1-2.7-3.5-3.1c-0.4-0.4-0.7,0.3-0.8,0.8c-0.1,0.4,2.3,2.3,2.3,2.3s-0.5,0.1-1.2,0
	s-1.7,0-2.4-0.6c-0.7-0.6-1-5.2-1.8-10.6c-0.8-5.5-4.4-8.9-10.5-12.8c-6.1-3.9-12-4.4-14.2-4.7c-2.2-0.3-3.1-1-3.6-1.4
	c-0.5-0.4-0.2-5.9,0.1-7c0.3-1.1,1.9-1.3,4.1-1.4c4.5-0.2,9.2,1.3,13.8,3s9.6,4.3,11.6,6c2,1.7,4.5,5.7,4.5,5.8
	c0,0.1-1.2-0.6-1.6-0.8c-0.5-0.2-0.2,0.9-0.1,1c0,0.2,3.9,2.5,4,2.7s0.6,1.5,0.5,1.8c0,0.3-2.5-1.9-2.9-2.2
	c-0.4-0.3-0.5,0.6-0.4,1.1c0,0.4,4.1,3.2,4.3,3.5c0.2,0.3,0.2,0.6,0.1,0.9s-3.7-3.1-3.9-3.1c-0.2,0-0.3,1-0.1,1.3
	c0.1,0.2,4.5,3.6,4.6,3.8C-404.7,294.7-404.6,295.6-404.6,295.8L-404.6,295.8z M-440.3,252.4c-1.3,0.6-1.9,3.1-1.8,4.1
	c0.1,1,1,2.1,1.6,1.9c0.4-0.1,0.4-1.2,0.2-1.4c-0.2-0.1-0.4-0.9-0.1-2c0.3-1.1,1.4-1.1,1.9-1.6
	C-437.9,252.8-438.9,251.8-440.3,252.4L-440.3,252.4z M-440.6,272.7c-0.8,0-1.7,1.2-1.7,1.8c0,0.6,0.7,2,1.2,2
	c0.4,0,0.6-0.6,0.4-1.1c-0.1-0.5,0.5-1.2,0.8-1.6S-439.8,272.7-440.6,272.7L-440.6,272.7z M-437.7,296.2c-1,0.2-2.6,2.4-2.6,3
	c-0.1,2.3,0.4,2.5,1.1,2.4c0.7,0,0.4-0.9,0.4-1.8c0-0.9,1.2-2.2,1.9-2.8C-436.2,296.5-436.7,295.9-437.7,296.2L-437.7,296.2z"/>
</svg>
