<?xml version="1.0" encoding="utf-8"?>
<!-- Generator: Adobe Illustrator 19.1.0, SVG Export Plug-In . SVG Version: 6.00 Build 0)  -->
<svg version="1.1" id="Layer_1" xmlns="http://www.w3.org/2000/svg" xmlns:xlink="http://www.w3.org/1999/xlink" x="0px" y="0px"
	 viewBox="-447 249 64 64" style="enable-background:new -447 249 64 64;" xml:space="preserve">
<style type="text/css">
	.st0{fill:#55ACEE;}
</style>
<path class="st0" d="M-384.5,265.9c0,0,0.9-1.5,1-2.3c0.1-0.9,0.1-1.9-0.3-2.2s-2.2,0.2-3.5,0.7c-1.4,0.4-4.2,0.9-4.2,0.9
	s-1.7-5.1-4.5-7.1c-2.8-2-6.5-2-9.6-1.3c-3.1,0.7-6.9,2.7-8.7,4.8c-1.8,2.1-3.3,6.3-3.8,7.9c-0.5,1.7-1.6,4.6-2.8,4.8
	c-1.2,0.2-3.4-0.6-5.4-1.8c-1.9-1.2-6.9-5.2-9.4-7.5s-6-6.2-7.2-6c-1.1,0.2-2.5,4.4-2.5,7.3c0,2.9,2.6,5.8,2.6,5.8
	c-1.1,3.8-0.4,6.6,0.6,8.5s3.2,3.3,3.2,3.3c-0.3,1.3-0.1,2.9,0.3,4.4c0.5,1.4,3,3.2,3,3.2s-1.5,1.2-3.8,1.9c-2.3,0.7-6.8,0-7.3,0
	c-0.5,0.1,0,6,0,6.9c0,0.9,0.6,1.5,1.4,2.1c0.8,0.6,6.9,3.7,15.6,5.9c8.7,2.2,15.5,0.3,20.6-1.9c5.2-2.2,10.7-9.1,14.3-14.6
	c3.6-5.5,6-13.4,6-13.4s1.3-0.7,3.3-2.1c1.9-1.4,2.6-3.8,2.7-5.3C-383,267.1-384.5,265.9-384.5,265.9L-384.5,265.9z M-388.8,269.1
	c0.6,0,3-1.4,3.3-1.1c0.3,0.2-0.7,2.1-2.5,3.1c-1.8,1-3.1,1.6-3.4,1.5s-1.6-2.5-1.8-2.4c-0.2,0-0.8,0.5-0.6,0.8
	c0.1,0.3,1.5,2.2,1.4,2.5c-0.1,0.3-0.2,0.4-0.4,0.2c-0.2-0.2-1.5-3-1.9-3.1c-0.4-0.1-0.9,0.7-0.6,1.1c0.2,0.4,2,2.6,1.9,3
	c0,0.4-0.4,2-0.6,1.7c-0.1-0.2-2.3-4.3-2.5-4.2c-0.2,0-0.7,1-0.6,1.2c0.1,0.3,2.7,4,2.7,4.3c0,0.3-0.8,1.9-1,1.6
	c-0.2-0.3-2.5-5-2.7-5c-0.2,0-0.8,0.8-0.8,1c0,0.2,2.9,5,2.9,5.3c0.1,0.4-0.6,2.4-0.9,2.2c-0.3-0.1-2.6-5.9-2.8-5.9
	c-0.3,0-0.7,0.8-0.6,1.2c0.1,0.4,2.8,5.5,2.8,5.9c0,0.4-0.4,1.2-0.6,1.1c-0.1-0.1-3-7.3-3.3-7.2c-0.3,0-0.7,0.7-0.4,1.6
	c0.2,0.8,3.2,6.2,3.2,6.6c0,0.4-0.7,1.4-0.8,1.2c-0.1-0.2-3.2-7-3.5-6.9c-0.3,0.1-0.7,1.1-0.4,1.6c0.2,0.4,3.4,6,3.4,6.1
	s-0.8,1.5-1,1.4c-0.2-0.1-2.9-6.4-3.2-6.4c-0.3,0-0.8,0.7-0.5,1.4c0.3,0.7,3.1,5.5,3,5.8s-0.9,1.4-1,1.1c-0.1-0.2-3-6.7-3.3-6.7
	c-0.3,0-1.1,0.7-0.8,1.3c0.3,0.6,3.5,6.2,3.3,6.3c-0.1,0.1-1.3,1.6-1.4,1.5c-0.2-0.1-3.2-6.6-3.5-6.5c-0.3,0.1-0.8,0.6-0.5,1.1
	c0.3,0.5,3.4,6,3.3,6.2c-0.1,0.2-0.9,0.9-1.1,0.6c-0.2-0.2-3.2-6.1-3.5-6.1c-0.3,0-1,0.9-0.8,1.3c0.2,0.4,3.7,5.7,3.5,5.9
	s-1.2,1.2-1.4,1c-0.1-0.2-2.8-5.6-3.3-5.5c-0.5,0-0.9,0.9-0.7,1.1c0.2,0.3,2.9,4.8,2.9,4.8s-1.3,0.8-1.5,0.5
	c-0.2-0.2-2.4-5.2-2.6-5.2s-1.1,0.6-0.8,1.1c0.4,0.6,2.6,4.3,2.4,4.5c-0.2,0.2-0.9,0.5-1.1,0.2c-0.2-0.2-2.4-5.2-2.7-5.2
	c-0.2,0-1.1,0.4-0.9,0.7c0.2,0.4,2.5,5,2.4,5.1c-0.1,0.1-1.5,0.5-1.7,0.3c-0.2-0.2-2.1-4.3-2.4-4.3s-0.6,0.5-0.6,0.7
	c0.1,0.2,2.1,3.8,2,3.9c-0.1,0.1-1.5,0.3-1.7,0.2c-0.1-0.1-2-4.4-2.3-4.5c-0.3-0.1-0.9,0.5-0.8,0.9c0.1,0.4,1.8,3.6,1.6,3.6
	c-0.2,0.1-1.4,0.1-1.6-0.1s-1.6-3.7-2-3.8c-0.3-0.1-0.9,0.1-0.7,0.6s1.9,3.6,1.6,3.6s-1.6,0-1.8-0.1c-0.1-0.1-1.6-3.6-1.9-3.7
	c-0.2-0.1-1.1-0.1-0.9,0.3c0.1,0.5,1.7,3.2,1.4,3.2c-0.3,0-1.8-0.3-2-0.5c-0.2-0.2-1.6-3.5-1.9-3.5c-0.3,0-0.9,0.3-0.8,0.7
	c0.1,0.4,1.4,2.7,1,2.7c-0.3-0.1-1.8-0.3-1.8-0.5c0-0.2-1.5-3.2-1.7-3.3s-1.1,0-0.9,0.4c0.2,0.4,1.1,2.4,1,2.4c-0.1,0-3.5-1-6.3-2.4
	c-2.8-1.4-5.3-3.6-5-3.7c0.3-0.1,3.9,0.2,6.4-0.7c2.5-0.9,5-1.9,5.1-2.2c0.1-0.3-0.3-0.9-0.4-1c-0.1,0-3.1-1-3.8-3.1
	c-0.6-2.2-0.1-4.5-0.5-4.8c-0.4-0.3-2.4-1.1-3.4-4.2c-1-3.1,0.1-7.3-0.1-7.6c-0.2-0.3-0.6-0.9-0.9-0.8c-0.4,0.1-1.5-2.3-1.6-4.6
	s1-5.3,1.2-5.3c0.2,0,6.6,6.2,10,9c3.4,2.9,7.4,5.8,9.7,6.2s3.3,0.5,4.4-1.8c1.1-2.2,2.3-7.7,4-10.2c1.7-2.5,5.1-5.4,9.6-6.1
	c4.4-0.7,7.8,0.5,9.6,3c1.8,2.5,1.9,5.7,2.3,6c0.4,0.3,2.3,0.2,4.6-0.6c2.3-0.8,3.1-1,3.3-1c0.1,0-0.5,1.5-2,2.7
	c-1.5,1.2-2.5,2.1-2.5,2.7S-389.4,269.1-388.8,269.1L-388.8,269.1z M-440.9,264.9c-0.7-0.5-0.4-1.8-0.2-2.7c0.2-0.9-1.3-0.7-1.5,0.3
	c-0.2,1,0,2.5,0.9,3.2c0.8,0.7,1.6,0.7,1.8,0.5C-439.7,265.9-440.2,265.4-440.9,264.9z M-420.8,275c-0.5-0.1-1.9,0.6-3.3-0.1
	c-1.4-0.7-2.8-2.4-3.4-2.2c-0.4,0.1-0.9,0.7,0.2,1.7c1,1,3,1.8,4.6,1.8C-421.1,276.3-420.2,275.1-420.8,275z M-410.9,262.5
	c-0.4-0.1-1.9,0.9-2.6,2.1c-0.7,1.2-1.8,3.6-1,4.1c0.6,0.3,0.8-0.1,1.3-1.4c0.4-1.4,1.3-2.9,1.7-3.5
	C-411,263.2-410.6,262.6-410.9,262.5L-410.9,262.5z"/>
</svg>
